<svg id="Layer_1" data-name="Layer 1" xmlns="http://www.w3.org/2000/svg" viewBox="0 0 256 256"><defs><style>.cls-1{fill:#231f20;}</style></defs><path class="cls-1" d="M98.7034,125.3147q4.5146-4.8838,9.2773-10.3154,4.7607-5.43,9.1553-10.8643,4.3946-5.43,8.0566-10.7422a60.7219,60.7219,0,0,0,5.7368-10.0708,4.1,4.1,0,0,1,4.15-2.6855,4.34,4.34,0,0,1,3.3575,1.4038,4.5189,4.5189,0,0,1,1.2812,3.1128,4.59,4.59,0,0,1-.3662,1.831,75.4524,75.4524,0,0,1-7.69,13.1836q-4.8838,6.8379-10.5581,13.6109-5.6778,6.7749-11.5977,13.1836T98.7034,138.8645q.12,9.7647.3047,19.165.1845,9.3985.1836,17.8223,0,33.5684-6.5918,49.8047Q86.008,241.89,72.9465,241.8918a17.8491,17.8491,0,0,1-8.3007-1.9531,18.5182,18.5182,0,0,1-6.47-5.6152,28.1962,28.1962,0,0,1-4.2109-9.0332,44.713,44.713,0,0,1-1.5264-12.207,75.8613,75.8613,0,0,1,2.0147-16.5411,101.768,101.768,0,0,1,6.4687-18.9814,143.0321,143.0321,0,0,1,11.5362-20.6914,180.4476,180.4476,0,0,1,17.09-21.667q0-10.5.1221-20.9356.12-10.437.4277-20.02.3032-9.5815.8535-17.9443.5508-8.36,1.2822-14.8316a4.4833,4.4833,0,0,1,1.5264-2.93,4.6172,4.6172,0,0,1,3.1123-1.0986,4.344,4.344,0,0,1,3.1738,1.3428,4.4874,4.4874,0,0,1,1.3428,3.2959q0,.7324-.4277,4.7607t-.9151,11.8408q-.4891,7.8135-.915,19.3482Q98.702,109.5671,98.7034,125.3147Zm-8.667,49.8047q0-6.2256-.1221-12.4512t-.2441-13.55a145.18,145.18,0,0,0-12.8789,18.0664,136.2232,136.2232,0,0,0-8.7276,17.09,86.0117,86.0117,0,0,0-4.9443,15.5029,65.8029,65.8029,0,0,0-1.5254,13.3057,49.7713,49.7713,0,0,0,.4883,6.8964,23.5324,23.5324,0,0,0,1.77,6.3477,12.2564,12.2564,0,0,0,3.48,4.6387,8.6719,8.6719,0,0,0,5.6152,1.77,10.287,10.287,0,0,0,3.1739-.61,9.3945,9.3945,0,0,0,3.7236-2.625,23.4207,23.4207,0,0,0,3.7227-5.7978,49.1974,49.1974,0,0,0,3.2958-10.1924,122.2592,122.2592,0,0,0,2.3194-15.8086Q90.0344,188.301,90.0364,175.1194ZM110.4221,25.2166a11.1085,11.1085,0,1,1-22.2168,0A11.0025,11.0025,0,0,1,91.44,17.343a11.0983,11.0983,0,0,1,18.9824,7.8736Z"/><path class="cls-1" d="M145.5779,107.614A18.958,18.958,0,0,0,152.17,113.29a22.8792,22.8792,0,0,0,20.7519-.7324,35.8418,35.8418,0,0,0,8.9112-7.5074,60.1978,60.1978,0,0,0,7.2021-10.3759q3.1728-5.7364,5.7373-11.4746a4.4227,4.4227,0,0,1,1.709-2.0142,4.5984,4.5984,0,0,1,2.4414-.6714,4.2459,4.2459,0,0,1,3.3565,1.4648,4.7287,4.7287,0,0,1,1.2822,3.1739,3.8609,3.8609,0,0,1-.1221,1.0376,5.38,5.38,0,0,1-.3662.9155q-8.4228,18.5566-18.3721,27.9546t-22.5215,9.6435a28.4558,28.4558,0,0,1-23.5595-11.17,33.9444,33.9444,0,0,1-5.6153-11.1694,43.9365,43.9365,0,0,1-1.831-12.4512,40.9715,40.9715,0,0,1,1.5254-11.4746,29.0214,29.0214,0,0,1,4.3945-9.1553,21.1807,21.1807,0,0,1,6.8359-6.1035,17.714,17.714,0,0,1,8.7286-2.1972,14.1863,14.1863,0,0,1,5.5546,1.16,15.9937,15.9937,0,0,1,4.9434,3.2959,16.33,16.33,0,0,1,3.54,5.188,17.1321,17.1321,0,0,1,1.3428,6.958,25.7115,25.7115,0,0,1-1.709,9.3994,31.6372,31.6372,0,0,1-4.6992,8.1787,40.06,40.06,0,0,1-7.1416,6.958A52.2887,52.2887,0,0,1,145.5779,107.614Zm-3.6621-7.9346a29.6756,29.6756,0,0,0,6.8965-4.0283,28.7482,28.7482,0,0,0,5.3105-5.3711,24.9235,24.9235,0,0,0,3.418-6.1645,18.3952,18.3952,0,0,0,1.2207-6.5308,7.6842,7.6842,0,0,0-1.8311-5.5542,5.77,5.77,0,0,0-4.2724-1.8921,8.78,8.78,0,0,0-5.6153,1.8311,13.8244,13.8244,0,0,0-3.7842,4.7607,24.5892,24.5892,0,0,0-2.1357,6.5308,38.8526,38.8526,0,0,0-.6719,7.1411,26.8076,26.8076,0,0,0,.4278,4.6387Q141.3048,97.4842,141.9158,99.6794Z"/></svg>