<svg id="Layer_1" data-name="Layer 1" xmlns="http://www.w3.org/2000/svg" viewBox="0 0 157.123 233.7827"><defs><style>.cls-1{fill:#231f20;stroke:#231f20;stroke-miterlimit:10;stroke-width:6px;}</style></defs><path class="cls-1" d="M98.7031,125.3147q4.5147-4.8838,9.2774-10.3149,4.7607-5.43,9.1552-10.8643,4.3945-5.43,8.0567-10.7422A60.7342,60.7342,0,0,0,130.93,83.3225a4.1,4.1,0,0,1,4.15-2.6855,4.34,4.34,0,0,1,3.3574,1.4038,4.519,4.519,0,0,1,1.2813,3.1128,4.5883,4.5883,0,0,1-.3663,1.831,75.45,75.45,0,0,1-7.69,13.1836q-4.8838,6.8379-10.5586,13.6109-5.6776,6.7749-11.5976,13.1835T98.7031,138.864q.12,9.7647.3047,19.1651.1846,9.3984.1836,17.8222,0,33.5683-6.5918,49.8047-6.5917,16.2334-19.6533,16.2354a17.8493,17.8493,0,0,1-8.3008-1.9532,18.5179,18.5179,0,0,1-6.47-5.6152,28.1942,28.1942,0,0,1-4.211-9.0332,44.7365,44.7365,0,0,1-1.5263-12.207,75.9284,75.9284,0,0,1,2.0146-16.5411A101.7615,101.7615,0,0,1,60.9219,177.56,142.98,142.98,0,0,1,72.458,156.87a180.4553,180.4553,0,0,1,17.09-21.668q0-10.5.122-20.9346.12-10.437.4278-20.02.3032-9.5815.8535-17.9443.5508-8.36,1.2822-14.8316a4.4829,4.4829,0,0,1,1.5264-2.93,4.6172,4.6172,0,0,1,3.1123-1.0986,4.3438,4.3438,0,0,1,3.1738,1.3428,4.4878,4.4878,0,0,1,1.3428,3.2959q0,.7325-.4278,4.7607t-.915,11.8408q-.4893,7.8135-.915,19.3482Q98.7016,109.5676,98.7031,125.3147Zm-8.667,49.8042q0-6.2256-.122-12.4512t-.2442-13.55A145.19,145.19,0,0,0,76.791,167.1843a136.2353,136.2353,0,0,0-8.7275,17.09,86.0125,86.0125,0,0,0-4.9444,15.5029,65.8023,65.8023,0,0,0-1.5253,13.3057,49.771,49.771,0,0,0,.4882,6.8964,23.5314,23.5314,0,0,0,1.77,6.3477,12.2544,12.2544,0,0,0,3.48,4.6387,8.6717,8.6717,0,0,0,5.6152,1.77,10.2865,10.2865,0,0,0,3.1738-.61,9.3954,9.3954,0,0,0,3.7237-2.625,23.4179,23.4179,0,0,0,3.7226-5.7978,49.2028,49.2028,0,0,0,3.2959-10.1924,122.2584,122.2584,0,0,0,2.3193-15.8086Q90.0342,188.3005,90.0361,175.1189ZM110.4219,25.217a11.1085,11.1085,0,1,1-22.2168,0A11.002,11.002,0,0,1,91.44,17.3435a11.0983,11.0983,0,0,1,18.9824,7.8735Z" transform="translate(-49.4385 -11.1086)"/><path class="cls-1" d="M145.5781,107.6145a18.9589,18.9589,0,0,0,6.5918,5.6763,22.8831,22.8831,0,0,0,20.752-.7325,35.837,35.837,0,0,0,8.9111-7.5073,60.19,60.19,0,0,0,7.2022-10.376q3.1728-5.7363,5.7373-11.4746a4.4222,4.4222,0,0,1,1.7089-2.0141,4.599,4.599,0,0,1,2.4415-.6714,4.2455,4.2455,0,0,1,3.3564,1.4648,4.7282,4.7282,0,0,1,1.2822,3.1739,3.8653,3.8653,0,0,1-.122,1.0376,5.3806,5.3806,0,0,1-.3663.9155q-8.4228,18.5567-18.372,27.9541T162.18,124.7043a28.454,28.454,0,0,1-23.56-11.1694,33.9461,33.9461,0,0,1-5.6152-11.1694,43.9366,43.9366,0,0,1-1.8311-12.4512A40.9715,40.9715,0,0,1,132.6992,78.44a29.0194,29.0194,0,0,1,4.3946-9.1553,21.1807,21.1807,0,0,1,6.8359-6.1035,17.7137,17.7137,0,0,1,8.7285-2.1973,14.1851,14.1851,0,0,1,5.5547,1.16,15.9933,15.9933,0,0,1,4.9433,3.2959,16.33,16.33,0,0,1,3.54,5.188,17.1337,17.1337,0,0,1,1.3428,6.958,25.7115,25.7115,0,0,1-1.709,9.3994,31.6418,31.6418,0,0,1-4.6992,8.1787,40.0629,40.0629,0,0,1-7.1416,6.958A52.2857,52.2857,0,0,1,145.5781,107.6145ZM141.916,99.68a29.6735,29.6735,0,0,0,6.8965-4.0283,28.7481,28.7481,0,0,0,5.31-5.3711,24.917,24.917,0,0,0,3.418-6.1645,18.3952,18.3952,0,0,0,1.2207-6.5308,7.6842,7.6842,0,0,0-1.831-5.5542,5.77,5.77,0,0,0-4.2725-1.8921A8.78,8.78,0,0,0,147.043,71.97a13.8244,13.8244,0,0,0-3.7842,4.7607,24.5857,24.5857,0,0,0-2.1358,6.5308,38.8516,38.8516,0,0,0-.6718,7.1411,26.817,26.817,0,0,0,.4277,4.6387Q141.3052,97.4846,141.916,99.68Z" transform="translate(-49.4385 -11.1086)"/></svg>