<svg id="Layer_1" data-name="Layer 1" xmlns="http://www.w3.org/2000/svg" viewBox="0 0 151.1279 227.8371"><defs><style>.cls-1{fill:#fff;}</style></defs><path class="cls-1" d="M98.7034,125.3147q4.5146-4.8838,9.2773-10.3154,4.7607-5.43,9.1553-10.8643,4.3946-5.43,8.0566-10.7422a60.72,60.72,0,0,0,5.7368-10.0708,4.1,4.1,0,0,1,4.15-2.6855,4.34,4.34,0,0,1,3.3575,1.4038,4.5191,4.5191,0,0,1,1.2812,3.1128,4.59,4.59,0,0,1-.3662,1.831,75.4509,75.4509,0,0,1-7.69,13.1836q-4.8838,6.8379-10.5581,13.6109-5.6778,6.7749-11.5977,13.1836T98.7034,138.8645q.12,9.7647.3047,19.165.1845,9.3985.1836,17.8223,0,33.5685-6.5918,49.8047Q86.008,241.89,72.9465,241.8918a17.8491,17.8491,0,0,1-8.3007-1.9531,18.5185,18.5185,0,0,1-6.47-5.6152,28.1951,28.1951,0,0,1-4.2109-9.0332,44.7115,44.7115,0,0,1-1.5264-12.207,75.86,75.86,0,0,1,2.0147-16.5411,101.7661,101.7661,0,0,1,6.4687-18.9814,143.034,143.034,0,0,1,11.5362-20.6914,180.4377,180.4377,0,0,1,17.09-21.667q0-10.5.1221-20.9356.12-10.437.4277-20.02.3032-9.5815.8535-17.9443.5508-8.36,1.2822-14.8316a4.4835,4.4835,0,0,1,1.5264-2.93,4.6166,4.6166,0,0,1,3.1123-1.0986,4.3444,4.3444,0,0,1,3.1738,1.3428,4.4876,4.4876,0,0,1,1.3428,3.2959q0,.7324-.4277,4.7607t-.9151,11.8408q-.4891,7.8135-.915,19.3482Q98.702,109.5671,98.7034,125.3147Zm-8.667,49.8047q0-6.2256-.1221-12.4512t-.2441-13.55a145.1792,145.1792,0,0,0-12.8789,18.0664,136.222,136.222,0,0,0-8.7276,17.09,86.0151,86.0151,0,0,0-4.9443,15.5029,65.7991,65.7991,0,0,0-1.5254,13.3057,49.7731,49.7731,0,0,0,.4883,6.8964,23.5348,23.5348,0,0,0,1.77,6.3477,12.2558,12.2558,0,0,0,3.48,4.6387,8.6715,8.6715,0,0,0,5.6152,1.77,10.286,10.286,0,0,0,3.1739-.61,9.3936,9.3936,0,0,0,3.7236-2.625,23.4232,23.4232,0,0,0,3.7227-5.7978,49.2009,49.2009,0,0,0,3.2958-10.1924,122.2584,122.2584,0,0,0,2.3194-15.8086Q90.0345,188.301,90.0364,175.1194ZM110.4221,25.2166a11.1085,11.1085,0,0,1-22.2168.0929c0-.031,0-.0619,0-.0929a11.1087,11.1087,0,1,1,22.2171,0Z" transform="translate(-52.4344 -14.0556)"/><path class="cls-1" d="M145.5779,107.614a18.958,18.958,0,0,0,6.5921,5.676,22.879,22.879,0,0,0,20.7519-.7324,35.84,35.84,0,0,0,8.9112-7.5074,60.1971,60.1971,0,0,0,7.2021-10.3759q3.1728-5.7365,5.7373-11.4746a4.423,4.423,0,0,1,1.709-2.0142,4.5977,4.5977,0,0,1,2.4414-.6714,4.246,4.246,0,0,1,3.3565,1.4648,4.7283,4.7283,0,0,1,1.2822,3.1739A3.8617,3.8617,0,0,1,203.44,86.19a5.3846,5.3846,0,0,1-.3662.9155q-8.4228,18.5567-18.3721,27.9546T162.18,124.704a28.4558,28.4558,0,0,1-23.5595-11.17,33.945,33.945,0,0,1-5.6153-11.1694,43.94,43.94,0,0,1-1.831-12.4512,40.9741,40.9741,0,0,1,1.5254-11.4746,29.0231,29.0231,0,0,1,4.3945-9.1553A21.1807,21.1807,0,0,1,143.93,63.18a17.7141,17.7141,0,0,1,8.7287-2.1972,14.1861,14.1861,0,0,1,5.5546,1.16,15.9932,15.9932,0,0,1,4.9434,3.2959,16.3315,16.3315,0,0,1,3.54,5.188,17.1326,17.1326,0,0,1,1.3428,6.958,25.7134,25.7134,0,0,1-1.709,9.3994,31.6434,31.6434,0,0,1-4.6992,8.1787,40.0586,40.0586,0,0,1-7.1417,6.958A52.2915,52.2915,0,0,1,145.5779,107.614Zm-3.6621-7.9346a29.6753,29.6753,0,0,0,6.8965-4.0283,28.7466,28.7466,0,0,0,5.3105-5.3711,24.9247,24.9247,0,0,0,3.418-6.1645,18.3945,18.3945,0,0,0,1.2207-6.5308,7.6839,7.6839,0,0,0-1.8311-5.5542,5.77,5.77,0,0,0-4.2724-1.8921,8.78,8.78,0,0,0-5.6153,1.8311,13.8248,13.8248,0,0,0-3.7842,4.7607,24.5946,24.5946,0,0,0-2.1357,6.5308,38.8514,38.8514,0,0,0-.6719,7.1411,26.8078,26.8078,0,0,0,.4278,4.6387Q141.3048,97.4842,141.9158,99.6794Z" transform="translate(-52.4344 -14.0556)"/></svg>