<svg xmlns="http://www.w3.org/2000/svg" xmlns:xlink="http://www.w3.org/1999/xlink" version="1.1" id="Layer_1" x="0px" y="0px" width="150px" height="46px" viewBox="0 0 150 46" style="enable-background:new 0 0 150 46;" xml:space="preserve">
<style type="text/css">
	.st0{fill-rule:evenodd;clip-rule:evenodd;fill:#FFFFFF;}
</style>
<path class="st0" d="M21.3,10.3c-0.6-1.8-3.7-2.3-6.4-2.2c-2.6,0.1-5,0.7-4.9,1.2c0.2,0.5,1.5,0.5,2.3,0.4c0.1,0,0.3,0,0.4,0  c2.5,0,4.9,0.5,5.5,1.1c0.9,1-0.7,3.6-5.4,7.1c-0.9,0.7-1.6,1.3-1.8,1.6c-0.1,0.2,0,0.4,0.2,0.4c0.3,0,0.9-0.1,1.9-0.6  C17.3,17.4,22.2,13.2,21.3,10.3z M26.2,17.6L26.2,17.6c-2.4-0.4-6.6-0.5-8.1,1.7c-1.1,1.6,0.8,3.8,2.6,6c0.1,0.1,0.2,0.2,0.3,0.3  c0.2,0.2,0.3,0.4,0.5,0.6l0,0c1.4,1.6,2.6,3.1,2,4c-0.5,0.7-3.2,0.8-4.7,0.9c-0.2,0-0.5,0-0.6,0c-0.4,0-0.9,0-1.3,0.1l0,0  c-1.2,0-2.4,0.1-2.7,0.2c-0.3,0.2-0.5,0.7,0.7,1c1,0.2,3.4,0.5,6,0.5c2.7,0,5.4-0.4,6-2.5c0.4-1.5-0.9-3.1-2.2-4.7l0,0l0,0l0,0l0,0  l0,0l0,0l0,0l0,0l0,0l0,0l0,0l0,0l0,0l0,0c-0.1-0.2-0.3-0.3-0.4-0.5c-0.4-0.4-0.7-0.9-1.1-1.3l0,0c-1.2-1.3-2.1-2.4-2-3.5  c0.1-1.1,2.2-1.1,5.7-1.2c0.7,0,2.2,0,1.9-0.6C28.6,18,27.5,17.8,26.2,17.6z M46.9,26.9c0.6-3.5,3-6.5,7.4-6.5  c4.4,0,5.8,2.9,5.3,6.5c-0.6,3.5-3,6.5-7.4,6.5C47.7,33.3,46.3,30.4,46.9,26.9z M56.8,26.9c-0.5,2.9-1.8,4.3-4.3,4.3  c-2.5,0-3.3-1.5-2.9-4.3c0.5-2.9,1.8-4.3,4.3-4.3C56.4,22.5,57.3,24,56.8,26.9z M8.9,21.2c2.2-0.1,4.9,0.2,6.4,1.3  c0.7,0.5,1.3,1.5,1,2.5c-0.9,3.1-4.1,6.8-11.3,9.7c-2.3,0.9-4.1,1.3-4.5,1c-0.4-0.2,0.5-1.8,1-2.7l0,0l0,0l0,0  c0.1-0.1,0.1-0.2,0.2-0.3c1.2-2.2,2.6-4.3,4-6.2c0-0.1,0.1-0.1,0.2-0.2l0,0c0.5-0.7,1.2-1.7,1.9-1.6C8.3,24.7,7.5,26,7,26.9  c-0.8,1.4-3.1,5.3-2.4,5.5c1.7,0.5,9.6-4.9,8.4-7.9c-0.5-1.4-4-1.5-6.1-1.5c-0.2,0-0.4,0-0.6,0h0h0h0h0h0h0c-1.1,0-2.5,0.1-2.6-0.5  C3.6,22,7,21.3,8.9,21.2z M37.9,26c-1.1-0.8-1.4-2-1.3-2.9c0.2-1.4,1.5-2.7,2.9-2.7h6.4v1.3c-0.1,0.6-0.4,1.2-1,1.2h-4.8  c-0.5,0-0.8,0.1-0.8,0.4c0,0.2,0.1,0.3,0.4,0.6l4.2,3c0.9,0.6,1.4,1.6,1.1,3c-0.2,1.5-1.4,2.9-3.8,2.9h-5.4v-1.7  c0.1-0.6,0.4-0.8,0.9-0.8h4.6c0.8,0,1.1-0.2,1.1-0.7c0-0.3-0.2-0.5-0.6-0.8L37.9,26z M68.8,30.8h-5.3l1.8-10c0-0.2-0.1-0.4-0.4-0.4  h-2.3l-2.3,12.4h8.7l0.2-1.2C69.4,31,69.3,30.8,68.8,30.8z M138.9,20.5h0.6c0.1,0,0.2,0,0.3,0.1c0.1,0.1,0.2,0.2,0.2,0.3  c0,0.3-0.2,0.4-0.2,0.4l-6.4,5.4l4.8,5.2c0,0,0.2,0.2,0.2,0.4c0,0.1-0.1,0.3-0.2,0.3c-0.1,0.1-0.2,0.1-0.3,0.1h-0.6l-5-5.5l-1,5.5  h-1.4l2.3-12.4h0.6c0.1,0,0.3,0,0.4,0.1c0.1,0.1,0.2,0.3,0.2,0.5l-0.8,4.8L138.9,20.5z M84.6,20.4h-6.7l0,0.2  c-0.2,0.8-0.1,1.8,1.2,1.8h4.9c2,0,2.7,1.4,2.2,4.1c-0.4,2.4-1.8,4.3-3.7,4.3h-2.7l1.3-7h-2.3c-0.3,0-0.5,0.2-0.6,0.4l-1.6,8.6H82  c3.9,0,6.5-1.8,7.4-6.4C90,22.9,88.6,20.4,84.6,20.4z M120.6,20.5h3.2c1.9,0,3.5,0,4.5,1.1c0.5,0.6,0.6,1.8,0.4,2.5  c-0.2,0.9-1,3.1-4.1,3.4l2.6,4.5c0,0,0.2,0.3,0.2,0.4c0,0.1,0,0.3-0.2,0.3c-0.1,0.1-0.2,0.1-0.3,0.1h-0.7l-3.1-5.3l-2.5,0l-1,5.3  h-1.4L120.6,20.5z M125.2,26.1c-0.8,0.2-1.8,0.2-2.9,0.2c-0.2,0-0.5,0-0.8,0h0c-0.2,0-0.4,0-0.7,0l0.8-4.5c0.1,0,0.3,0,0.6,0  c0.9,0,2.3,0,2.9,0c0.3,0,0.5,0,0.7,0.1c0.6,0.1,1,0.2,1.2,0.5C128.1,23.4,127.2,25.6,125.2,26.1z M141.6,23.3  c0-0.9,0.3-2.9,2.7-2.9h5.1v0.9c0,0.2-0.2,0.3-0.3,0.4l0,0l0,0c0,0-4.6,0-4.6,0c-0.9,0-1.5,0.6-1.5,1.4c0,0.5,0.3,0.9,0.7,1.3  l3.3,3.3c0,0,1.2,1,1.2,2.3v0c0,0.9-0.3,2.9-2.7,2.9h-5.1v-0.9l0,0h0c0-0.2,0.1-0.3,0.3-0.4c0,0,2,0,3.3,0h0l0,0h0l0,0  c0.7,0,1.2,0,1.2,0c0.9,0,1.5-0.6,1.5-1.4c0-0.4-0.2-0.9-0.6-1.3l-3.5-3.4C142.3,25.1,141.6,24.3,141.6,23.3z M75.3,20.4H73  l-2.3,12.4h2.8l2.2-12C75.7,20.6,75.6,20.4,75.3,20.4z M113.2,20.4L113.2,20.4c3.7,0.4,4.8,3.8,4.1,6.9c-0.8,3.5-3.4,6.3-7.4,6  c-3.8-0.4-4.8-3.8-4.1-6.9C106.7,22.9,109.2,20.1,113.2,20.4z M116,27.2c-0.9,3.6-3.3,5-5.6,4.8l-0.2,0c-2.2-0.3-3.9-2-3-5.5  c0.9-3.6,3.5-5,5.8-4.8C115.2,21.9,116.8,23.7,116,27.2z M105.7,20.6c0.1,0.1,0.2,0.3,0.2,0.4c0,0.1,0,0.2-0.1,0.2l0,0L101,32  c-0.2,0.6-0.7,0.9-1.3,0.9h-0.9l-1.4-6.8L94.1,32c-0.2,0.2-0.3,0.4-0.5,0.6c-0.2,0.2-0.5,0.2-0.8,0.2h-1.1V20.5h0.8  c0.1,0,0.3,0,0.4,0.1c0.1,0.1,0.2,0.3,0.2,0.4l0,10.3l3.8-6.6h0.8c0.5,0,0.9,0.3,1,0.8l1.3,5.8l4.8-10.9h0.6  C105.4,20.5,105.5,20.5,105.7,20.6z"/>
</svg>
<style xmlns="http://www.w3.org/2000/svg" type="text/css">
	.st0{fill-rule:evenodd;clip-rule:evenodd;fill:#FFFFFF;}
</style>
<path xmlns="http://www.w3.org/2000/svg" class="st0" d="M21.3,10.3c-0.6-1.8-3.7-2.3-6.4-2.2c-2.6,0.1-5,0.7-4.9,1.2c0.2,0.5,1.5,0.5,2.3,0.4c0.1,0,0.3,0,0.4,0  c2.5,0,4.9,0.5,5.5,1.1c0.9,1-0.7,3.6-5.4,7.1c-0.9,0.7-1.6,1.3-1.8,1.6c-0.1,0.2,0,0.4,0.2,0.4c0.3,0,0.9-0.1,1.9-0.6  C17.3,17.4,22.2,13.2,21.3,10.3z M26.2,17.6L26.2,17.6c-2.4-0.4-6.6-0.5-8.1,1.7c-1.1,1.6,0.8,3.8,2.6,6c0.1,0.1,0.2,0.2,0.3,0.3  c0.2,0.2,0.3,0.4,0.5,0.6l0,0c1.4,1.6,2.6,3.1,2,4c-0.5,0.7-3.2,0.8-4.7,0.9c-0.2,0-0.5,0-0.6,0c-0.4,0-0.9,0-1.3,0.1l0,0  c-1.2,0-2.4,0.1-2.7,0.2c-0.3,0.2-0.5,0.7,0.7,1c1,0.2,3.4,0.5,6,0.5c2.7,0,5.4-0.4,6-2.5c0.4-1.5-0.9-3.1-2.2-4.7l0,0l0,0l0,0l0,0  l0,0l0,0l0,0l0,0l0,0l0,0l0,0l0,0l0,0l0,0c-0.1-0.2-0.3-0.3-0.4-0.5c-0.4-0.4-0.7-0.9-1.1-1.3l0,0c-1.2-1.3-2.1-2.4-2-3.5  c0.1-1.1,2.2-1.1,5.7-1.2c0.7,0,2.2,0,1.9-0.6C28.6,18,27.5,17.8,26.2,17.6z M46.9,26.9c0.6-3.5,3-6.5,7.4-6.5  c4.4,0,5.8,2.9,5.3,6.5c-0.6,3.5-3,6.5-7.4,6.5C47.7,33.3,46.3,30.4,46.9,26.9z M56.8,26.9c-0.5,2.9-1.8,4.3-4.3,4.3  c-2.5,0-3.3-1.5-2.9-4.3c0.5-2.9,1.8-4.3,4.3-4.3C56.4,22.5,57.3,24,56.8,26.9z M8.9,21.2c2.2-0.1,4.9,0.2,6.4,1.3  c0.7,0.5,1.3,1.5,1,2.5c-0.9,3.1-4.1,6.8-11.3,9.7c-2.3,0.9-4.1,1.3-4.5,1c-0.4-0.2,0.5-1.8,1-2.7l0,0l0,0l0,0  c0.1-0.1,0.1-0.2,0.2-0.3c1.2-2.2,2.6-4.3,4-6.2c0-0.1,0.1-0.1,0.2-0.2l0,0c0.5-0.7,1.2-1.7,1.9-1.6C8.3,24.7,7.5,26,7,26.9  c-0.8,1.4-3.1,5.3-2.4,5.5c1.7,0.5,9.6-4.9,8.4-7.9c-0.5-1.4-4-1.5-6.1-1.5c-0.2,0-0.4,0-0.6,0h0h0h0h0h0h0c-1.1,0-2.5,0.1-2.6-0.5  C3.6,22,7,21.3,8.9,21.2z M37.9,26c-1.1-0.8-1.4-2-1.3-2.9c0.2-1.4,1.5-2.7,2.9-2.7h6.4v1.3c-0.1,0.6-0.4,1.2-1,1.2h-4.8  c-0.5,0-0.8,0.1-0.8,0.4c0,0.2,0.1,0.3,0.4,0.6l4.2,3c0.9,0.6,1.4,1.6,1.1,3c-0.2,1.5-1.4,2.9-3.8,2.9h-5.4v-1.7  c0.1-0.6,0.4-0.8,0.9-0.8h4.6c0.8,0,1.1-0.2,1.1-0.7c0-0.3-0.2-0.5-0.6-0.8L37.9,26z M68.8,30.8h-5.3l1.8-10c0-0.2-0.1-0.4-0.4-0.4  h-2.3l-2.3,12.4h8.7l0.2-1.2C69.4,31,69.3,30.8,68.8,30.8z M138.9,20.5h0.6c0.1,0,0.2,0,0.3,0.1c0.1,0.1,0.2,0.2,0.2,0.3  c0,0.3-0.2,0.4-0.2,0.4l-6.4,5.4l4.8,5.2c0,0,0.2,0.2,0.2,0.4c0,0.1-0.1,0.3-0.2,0.3c-0.1,0.1-0.2,0.1-0.3,0.1h-0.6l-5-5.5l-1,5.5  h-1.4l2.3-12.4h0.6c0.1,0,0.3,0,0.4,0.1c0.1,0.1,0.2,0.3,0.2,0.5l-0.8,4.8L138.9,20.5z M84.6,20.4h-6.7l0,0.2  c-0.2,0.8-0.1,1.8,1.2,1.8h4.9c2,0,2.7,1.4,2.2,4.1c-0.4,2.4-1.8,4.3-3.7,4.3h-2.7l1.3-7h-2.3c-0.3,0-0.5,0.2-0.6,0.4l-1.6,8.6H82  c3.9,0,6.5-1.8,7.4-6.4C90,22.9,88.6,20.4,84.6,20.4z M120.6,20.5h3.2c1.9,0,3.5,0,4.5,1.1c0.5,0.6,0.6,1.8,0.4,2.5  c-0.2,0.9-1,3.1-4.1,3.4l2.6,4.5c0,0,0.2,0.3,0.2,0.4c0,0.1,0,0.3-0.2,0.3c-0.1,0.1-0.2,0.1-0.3,0.1h-0.7l-3.1-5.3l-2.5,0l-1,5.3  h-1.4L120.6,20.5z M125.2,26.1c-0.8,0.2-1.8,0.2-2.9,0.2c-0.2,0-0.5,0-0.8,0h0c-0.2,0-0.4,0-0.7,0l0.8-4.5c0.1,0,0.3,0,0.6,0  c0.9,0,2.3,0,2.9,0c0.3,0,0.5,0,0.7,0.1c0.6,0.1,1,0.2,1.2,0.5C128.1,23.4,127.2,25.6,125.2,26.1z M141.6,23.3  c0-0.9,0.3-2.9,2.7-2.9h5.1v0.9c0,0.2-0.2,0.3-0.3,0.4l0,0l0,0c0,0-4.6,0-4.6,0c-0.9,0-1.5,0.6-1.5,1.4c0,0.5,0.3,0.9,0.7,1.3  l3.3,3.3c0,0,1.2,1,1.2,2.3v0c0,0.9-0.3,2.9-2.7,2.9h-5.1v-0.9l0,0h0c0-0.2,0.1-0.3,0.3-0.4c0,0,2,0,3.3,0h0l0,0h0l0,0  c0.7,0,1.2,0,1.2,0c0.9,0,1.5-0.6,1.5-1.4c0-0.4-0.2-0.9-0.6-1.3l-3.5-3.4C142.3,25.1,141.6,24.3,141.6,23.3z M75.3,20.4H73  l-2.3,12.4h2.8l2.2-12C75.7,20.6,75.6,20.4,75.3,20.4z M113.2,20.4L113.2,20.4c3.7,0.4,4.8,3.8,4.1,6.9c-0.8,3.5-3.4,6.3-7.4,6  c-3.8-0.4-4.8-3.8-4.1-6.9C106.7,22.9,109.2,20.1,113.2,20.4z M116,27.2c-0.9,3.6-3.3,5-5.6,4.8l-0.2,0c-2.2-0.3-3.9-2-3-5.5  c0.9-3.6,3.5-5,5.8-4.8C115.2,21.9,116.8,23.7,116,27.2z M105.7,20.6c0.1,0.1,0.2,0.3,0.2,0.4c0,0.1,0,0.2-0.1,0.2l0,0L101,32  c-0.2,0.6-0.7,0.9-1.3,0.9h-0.9l-1.4-6.8L94.1,32c-0.2,0.2-0.3,0.4-0.5,0.6c-0.2,0.2-0.5,0.2-0.8,0.2h-1.1V20.5h0.8  c0.1,0,0.3,0,0.4,0.1c0.1,0.1,0.2,0.3,0.2,0.4l0,10.3l3.8-6.6h0.8c0.5,0,0.9,0.3,1,0.8l1.3,5.8l4.8-10.9h0.6  C105.4,20.5,105.5,20.5,105.7,20.6z"/>
<svg xmlns="http://www.w3.org/2000/svg" xmlns:xlink="http://www.w3.org/1999/xlink" version="1.1" id="Layer_1" x="0px" y="0px" width="150px" height="46px" viewBox="0 0 150 46" style="enable-background:new 0 0 150 46;" xml:space="preserve">
<style type="text/css">
	.st0{fill-rule:evenodd;clip-rule:evenodd;fill:#FFFFFF;}
</style>
<path class="st0" d="M21.3,10.3c-0.6-1.8-3.7-2.3-6.4-2.2c-2.6,0.1-5,0.7-4.9,1.2c0.2,0.5,1.5,0.5,2.3,0.4c0.1,0,0.3,0,0.4,0  c2.5,0,4.9,0.5,5.5,1.1c0.9,1-0.7,3.6-5.4,7.1c-0.9,0.7-1.6,1.3-1.8,1.6c-0.1,0.2,0,0.4,0.2,0.4c0.3,0,0.9-0.1,1.9-0.6  C17.3,17.4,22.2,13.2,21.3,10.3z M26.2,17.6L26.2,17.6c-2.4-0.4-6.6-0.5-8.1,1.7c-1.1,1.6,0.8,3.8,2.6,6c0.1,0.1,0.2,0.2,0.3,0.3  c0.2,0.2,0.3,0.4,0.5,0.6l0,0c1.4,1.6,2.6,3.1,2,4c-0.5,0.7-3.2,0.8-4.7,0.9c-0.2,0-0.5,0-0.6,0c-0.4,0-0.9,0-1.3,0.1l0,0  c-1.2,0-2.4,0.1-2.7,0.2c-0.3,0.2-0.5,0.7,0.7,1c1,0.2,3.4,0.5,6,0.5c2.7,0,5.4-0.4,6-2.5c0.4-1.5-0.9-3.1-2.2-4.7l0,0l0,0l0,0l0,0  l0,0l0,0l0,0l0,0l0,0l0,0l0,0l0,0l0,0l0,0c-0.1-0.2-0.3-0.3-0.4-0.5c-0.4-0.4-0.7-0.9-1.1-1.3l0,0c-1.2-1.3-2.1-2.4-2-3.5  c0.1-1.1,2.2-1.1,5.7-1.2c0.7,0,2.2,0,1.9-0.6C28.6,18,27.5,17.8,26.2,17.6z M46.9,26.9c0.6-3.5,3-6.5,7.4-6.5  c4.4,0,5.8,2.9,5.3,6.5c-0.6,3.5-3,6.5-7.4,6.5C47.7,33.3,46.3,30.4,46.9,26.9z M56.8,26.9c-0.5,2.9-1.8,4.3-4.3,4.3  c-2.5,0-3.3-1.5-2.9-4.3c0.5-2.9,1.8-4.3,4.3-4.3C56.4,22.5,57.3,24,56.8,26.9z M8.9,21.2c2.2-0.1,4.9,0.2,6.4,1.3  c0.7,0.5,1.3,1.5,1,2.5c-0.9,3.1-4.1,6.8-11.3,9.7c-2.3,0.9-4.1,1.3-4.5,1c-0.4-0.2,0.5-1.8,1-2.7l0,0l0,0l0,0  c0.1-0.1,0.1-0.2,0.2-0.3c1.2-2.2,2.6-4.3,4-6.2c0-0.1,0.1-0.1,0.2-0.2l0,0c0.5-0.7,1.2-1.7,1.9-1.6C8.3,24.7,7.5,26,7,26.9  c-0.8,1.4-3.1,5.3-2.4,5.5c1.7,0.5,9.6-4.9,8.4-7.9c-0.5-1.4-4-1.5-6.1-1.5c-0.2,0-0.4,0-0.6,0h0h0h0h0h0h0c-1.1,0-2.5,0.1-2.6-0.5  C3.6,22,7,21.3,8.9,21.2z M37.9,26c-1.1-0.8-1.4-2-1.3-2.9c0.2-1.4,1.5-2.7,2.9-2.7h6.4v1.3c-0.1,0.6-0.4,1.2-1,1.2h-4.8  c-0.5,0-0.8,0.1-0.8,0.4c0,0.2,0.1,0.3,0.4,0.6l4.2,3c0.9,0.6,1.4,1.6,1.1,3c-0.2,1.5-1.4,2.9-3.8,2.9h-5.4v-1.7  c0.1-0.6,0.4-0.8,0.9-0.8h4.6c0.8,0,1.1-0.2,1.1-0.7c0-0.3-0.2-0.5-0.6-0.8L37.9,26z M68.8,30.8h-5.3l1.8-10c0-0.2-0.1-0.4-0.4-0.4  h-2.3l-2.3,12.4h8.7l0.2-1.2C69.4,31,69.3,30.8,68.8,30.8z M138.9,20.5h0.6c0.1,0,0.2,0,0.3,0.1c0.1,0.1,0.2,0.2,0.2,0.3  c0,0.3-0.2,0.4-0.2,0.4l-6.4,5.4l4.8,5.2c0,0,0.2,0.2,0.2,0.4c0,0.1-0.1,0.3-0.2,0.3c-0.1,0.1-0.2,0.1-0.3,0.1h-0.6l-5-5.5l-1,5.5  h-1.4l2.3-12.4h0.6c0.1,0,0.3,0,0.4,0.1c0.1,0.1,0.2,0.3,0.2,0.5l-0.8,4.8L138.9,20.5z M84.6,20.4h-6.7l0,0.2  c-0.2,0.8-0.1,1.8,1.2,1.8h4.9c2,0,2.7,1.4,2.2,4.1c-0.4,2.4-1.8,4.3-3.7,4.3h-2.7l1.3-7h-2.3c-0.3,0-0.5,0.2-0.6,0.4l-1.6,8.6H82  c3.9,0,6.5-1.8,7.4-6.4C90,22.9,88.6,20.4,84.6,20.4z M120.6,20.5h3.2c1.9,0,3.5,0,4.5,1.1c0.5,0.6,0.6,1.8,0.4,2.5  c-0.2,0.9-1,3.1-4.1,3.4l2.6,4.5c0,0,0.2,0.3,0.2,0.4c0,0.1,0,0.3-0.2,0.3c-0.1,0.1-0.2,0.1-0.3,0.1h-0.7l-3.1-5.3l-2.5,0l-1,5.3  h-1.4L120.6,20.5z M125.2,26.1c-0.8,0.2-1.8,0.2-2.9,0.2c-0.2,0-0.5,0-0.8,0h0c-0.2,0-0.4,0-0.7,0l0.8-4.5c0.1,0,0.3,0,0.6,0  c0.9,0,2.3,0,2.9,0c0.3,0,0.5,0,0.7,0.1c0.6,0.1,1,0.2,1.2,0.5C128.1,23.4,127.2,25.6,125.2,26.1z M141.6,23.3  c0-0.9,0.3-2.9,2.7-2.9h5.1v0.9c0,0.2-0.2,0.3-0.3,0.4l0,0l0,0c0,0-4.6,0-4.6,0c-0.9,0-1.5,0.6-1.5,1.4c0,0.5,0.3,0.9,0.7,1.3  l3.3,3.3c0,0,1.2,1,1.2,2.3v0c0,0.9-0.3,2.9-2.7,2.9h-5.1v-0.9l0,0h0c0-0.2,0.1-0.3,0.3-0.4c0,0,2,0,3.3,0h0l0,0h0l0,0  c0.7,0,1.2,0,1.2,0c0.9,0,1.5-0.6,1.5-1.4c0-0.4-0.2-0.9-0.6-1.3l-3.5-3.4C142.3,25.1,141.6,24.3,141.6,23.3z M75.3,20.4H73  l-2.3,12.4h2.8l2.2-12C75.7,20.6,75.6,20.4,75.3,20.4z M113.2,20.4L113.2,20.4c3.7,0.4,4.8,3.8,4.1,6.9c-0.8,3.5-3.4,6.3-7.4,6  c-3.8-0.4-4.8-3.8-4.1-6.9C106.7,22.9,109.2,20.1,113.2,20.4z M116,27.2c-0.9,3.6-3.3,5-5.6,4.8l-0.2,0c-2.2-0.3-3.9-2-3-5.5  c0.9-3.6,3.5-5,5.8-4.8C115.2,21.9,116.8,23.7,116,27.2z M105.7,20.6c0.1,0.1,0.2,0.3,0.2,0.4c0,0.1,0,0.2-0.1,0.2l0,0L101,32  c-0.2,0.6-0.7,0.9-1.3,0.9h-0.9l-1.4-6.8L94.1,32c-0.2,0.2-0.3,0.4-0.5,0.6c-0.2,0.2-0.5,0.2-0.8,0.2h-1.1V20.5h0.8  c0.1,0,0.3,0,0.4,0.1c0.1,0.1,0.2,0.3,0.2,0.4l0,10.3l3.8-6.6h0.8c0.5,0,0.9,0.3,1,0.8l1.3,5.8l4.8-10.9h0.6  C105.4,20.5,105.5,20.5,105.7,20.6z"/>
</svg>